<mxfile host="app.diagrams.net" modified="2023-09-05T03:24:52.886Z" agent="Mozilla/5.0 (Windows NT 10.0; Win64; x64; rv:109.0) Gecko/20100101 Firefox/117.0" etag="WBLZVGisA8BvkWFlKUcd" version="21.6.8" type="github">
  <diagram id="_444KMjF0R_JeEPrCnwJ" name="第 1 页">
    <mxGraphModel dx="1434" dy="774" grid="1" gridSize="10" guides="1" tooltips="1" connect="1" arrows="1" fold="1" page="1" pageScale="1" pageWidth="827" pageHeight="1169" math="0" shadow="0">
      <root>
        <mxCell id="0" />
        <mxCell id="1" parent="0" />
        <mxCell id="IrjwPeZLxQH9oHeEekAO-6" style="edgeStyle=orthogonalEdgeStyle;rounded=0;orthogonalLoop=1;jettySize=auto;html=1;" edge="1" parent="1" source="6z5tFiYWaeQXX5f0UAhT-1" target="IrjwPeZLxQH9oHeEekAO-4">
          <mxGeometry relative="1" as="geometry" />
        </mxCell>
        <mxCell id="6z5tFiYWaeQXX5f0UAhT-1" value="设计BIM总包" style="ellipse;whiteSpace=wrap;html=1;aspect=fixed;" parent="1" vertex="1">
          <mxGeometry x="360" y="320" width="80" height="80" as="geometry" />
        </mxCell>
        <mxCell id="6z5tFiYWaeQXX5f0UAhT-18" style="edgeStyle=none;rounded=0;orthogonalLoop=1;jettySize=auto;html=1;" parent="1" source="6z5tFiYWaeQXX5f0UAhT-2" target="6z5tFiYWaeQXX5f0UAhT-16" edge="1">
          <mxGeometry relative="1" as="geometry" />
        </mxCell>
        <mxCell id="6z5tFiYWaeQXX5f0UAhT-2" value="主体设计BIM" style="rounded=1;whiteSpace=wrap;html=1;" parent="1" vertex="1">
          <mxGeometry x="240" y="525" width="120" height="40" as="geometry" />
        </mxCell>
        <mxCell id="6z5tFiYWaeQXX5f0UAhT-21" style="edgeStyle=none;rounded=0;orthogonalLoop=1;jettySize=auto;html=1;entryX=0.5;entryY=0;entryDx=0;entryDy=0;" parent="1" source="6z5tFiYWaeQXX5f0UAhT-3" target="6z5tFiYWaeQXX5f0UAhT-17" edge="1">
          <mxGeometry relative="1" as="geometry" />
        </mxCell>
        <mxCell id="6z5tFiYWaeQXX5f0UAhT-3" value="专项设计BIM" style="rounded=1;whiteSpace=wrap;html=1;" parent="1" vertex="1">
          <mxGeometry x="440" y="525" width="120" height="40" as="geometry" />
        </mxCell>
        <mxCell id="6z5tFiYWaeQXX5f0UAhT-9" value="业主" style="rounded=1;whiteSpace=wrap;html=1;" parent="1" vertex="1">
          <mxGeometry x="340" y="150" width="120" height="30" as="geometry" />
        </mxCell>
        <mxCell id="6z5tFiYWaeQXX5f0UAhT-19" style="edgeStyle=none;rounded=0;orthogonalLoop=1;jettySize=auto;html=1;" parent="1" source="6z5tFiYWaeQXX5f0UAhT-16" target="6z5tFiYWaeQXX5f0UAhT-2" edge="1">
          <mxGeometry relative="1" as="geometry" />
        </mxCell>
        <mxCell id="6z5tFiYWaeQXX5f0UAhT-22" value="辅助设计" style="edgeLabel;html=1;align=center;verticalAlign=middle;resizable=0;points=[];" parent="6z5tFiYWaeQXX5f0UAhT-19" vertex="1" connectable="0">
          <mxGeometry x="0.4661" y="-1" relative="1" as="geometry">
            <mxPoint x="-1" y="9" as="offset" />
          </mxGeometry>
        </mxCell>
        <mxCell id="6z5tFiYWaeQXX5f0UAhT-16" value="主体设计BIM" style="rounded=1;whiteSpace=wrap;html=1;" parent="1" vertex="1">
          <mxGeometry x="240" y="605" width="120" height="40" as="geometry" />
        </mxCell>
        <mxCell id="6z5tFiYWaeQXX5f0UAhT-20" style="edgeStyle=none;rounded=0;orthogonalLoop=1;jettySize=auto;html=1;entryX=0.5;entryY=1;entryDx=0;entryDy=0;" parent="1" source="6z5tFiYWaeQXX5f0UAhT-17" target="6z5tFiYWaeQXX5f0UAhT-3" edge="1">
          <mxGeometry relative="1" as="geometry" />
        </mxCell>
        <mxCell id="6z5tFiYWaeQXX5f0UAhT-23" value="辅助设计" style="edgeLabel;html=1;align=center;verticalAlign=middle;resizable=0;points=[];" parent="6z5tFiYWaeQXX5f0UAhT-20" vertex="1" connectable="0">
          <mxGeometry x="0.384" relative="1" as="geometry">
            <mxPoint y="8" as="offset" />
          </mxGeometry>
        </mxCell>
        <mxCell id="6z5tFiYWaeQXX5f0UAhT-17" value="主体设计BIM" style="rounded=1;whiteSpace=wrap;html=1;" parent="1" vertex="1">
          <mxGeometry x="440" y="605" width="120" height="40" as="geometry" />
        </mxCell>
        <mxCell id="IrjwPeZLxQH9oHeEekAO-7" style="edgeStyle=orthogonalEdgeStyle;rounded=0;orthogonalLoop=1;jettySize=auto;html=1;" edge="1" parent="1" source="IrjwPeZLxQH9oHeEekAO-3" target="6z5tFiYWaeQXX5f0UAhT-1">
          <mxGeometry relative="1" as="geometry" />
        </mxCell>
        <mxCell id="IrjwPeZLxQH9oHeEekAO-3" value="云设计协同平台" style="rounded=1;whiteSpace=wrap;html=1;" vertex="1" parent="1">
          <mxGeometry x="340" y="450" width="120" height="60" as="geometry" />
        </mxCell>
        <mxCell id="IrjwPeZLxQH9oHeEekAO-5" style="edgeStyle=orthogonalEdgeStyle;rounded=0;orthogonalLoop=1;jettySize=auto;html=1;" edge="1" parent="1" source="IrjwPeZLxQH9oHeEekAO-4" target="6z5tFiYWaeQXX5f0UAhT-9">
          <mxGeometry relative="1" as="geometry" />
        </mxCell>
        <mxCell id="IrjwPeZLxQH9oHeEekAO-4" value="CCBIM数据共享平台" style="rounded=1;whiteSpace=wrap;html=1;" vertex="1" parent="1">
          <mxGeometry x="340" y="230" width="120" height="60" as="geometry" />
        </mxCell>
      </root>
    </mxGraphModel>
  </diagram>
</mxfile>
